<svg xmlns="http://www.w3.org/2000/svg" width="20.788" height="23.098" viewBox="0 0 20.788 23.098">
  <defs>
    <style>
      .cls-1 {
        fill: #707070;
      }
    </style>
  </defs>
  <path id="Icon_material-date-range" data-name="Icon material-date-range" class="cls-1" d="M11.429,13.394H9.12V15.7h2.31Zm4.62,0h-2.31V15.7h2.31Zm4.62,0h-2.31V15.7h2.31Zm2.31-8.084H21.823V3h-2.31V5.31H10.274V3H7.965V5.31H6.81a2.3,2.3,0,0,0-2.3,2.31L4.5,23.788A2.309,2.309,0,0,0,6.81,26.1H22.978a2.317,2.317,0,0,0,2.31-2.31V7.62A2.317,2.317,0,0,0,22.978,5.31Zm0,18.478H6.81v-12.7H22.978Z" transform="translate(-4.5 -3)"/>
</svg>
