<svg xmlns="http://www.w3.org/2000/svg" width="16.188" height="18.5" viewBox="0 0 16.188 18.5">
  <defs>
    <style>
      .cls-1 {
        fill: #707070;
      }
    </style>
  </defs>
  <path id="Icon_awesome-building" data-name="Icon awesome-building" class="cls-1" d="M15.754,17.344h-.723V.867A.867.867,0,0,0,14.164,0H2.023a.867.867,0,0,0-.867.867V17.344H.434A.434.434,0,0,0,0,17.777V18.5H16.188v-.723A.434.434,0,0,0,15.754,17.344ZM4.625,2.746a.434.434,0,0,1,.434-.434H6.5a.434.434,0,0,1,.434.434V4.191a.434.434,0,0,1-.434.434H5.059a.434.434,0,0,1-.434-.434Zm0,3.469a.434.434,0,0,1,.434-.434H6.5a.434.434,0,0,1,.434.434V7.66a.434.434,0,0,1-.434.434H5.059a.434.434,0,0,1-.434-.434ZM6.5,11.563H5.059a.434.434,0,0,1-.434-.434V9.684a.434.434,0,0,1,.434-.434H6.5a.434.434,0,0,1,.434.434v1.445A.434.434,0,0,1,6.5,11.563ZM9.25,17.344H6.938V14.309a.434.434,0,0,1,.434-.434H8.816a.434.434,0,0,1,.434.434Zm2.313-6.215a.434.434,0,0,1-.434.434H9.684a.434.434,0,0,1-.434-.434V9.684a.434.434,0,0,1,.434-.434h1.445a.434.434,0,0,1,.434.434Zm0-3.469a.434.434,0,0,1-.434.434H9.684A.434.434,0,0,1,9.25,7.66V6.215a.434.434,0,0,1,.434-.434h1.445a.434.434,0,0,1,.434.434Zm0-3.469a.434.434,0,0,1-.434.434H9.684a.434.434,0,0,1-.434-.434V2.746a.434.434,0,0,1,.434-.434h1.445a.434.434,0,0,1,.434.434Z"/>
</svg>
