<svg xmlns="http://www.w3.org/2000/svg" width="62.752" height="54.908" viewBox="0 0 62.752 54.908">
  <defs>
    
  </defs>
  <path id="Icon_awesome-camera" data-name="Icon awesome-camera" class="cls-1" d="M62.752,15.977v35.3a5.885,5.885,0,0,1-5.883,5.883H5.883A5.885,5.885,0,0,1,0,51.275v-35.3a5.885,5.885,0,0,1,5.883-5.883H16.668l1.508-4.032a5.875,5.875,0,0,1,5.5-3.812H39.061a5.875,5.875,0,0,1,5.5,3.812l1.52,4.032H56.869A5.885,5.885,0,0,1,62.752,15.977ZM46.083,33.626A14.707,14.707,0,1,0,31.376,48.333,14.719,14.719,0,0,0,46.083,33.626Zm-3.922,0A10.785,10.785,0,1,1,31.376,22.84,10.8,10.8,0,0,1,42.161,33.626Z" transform="translate(0 -2.25)"/>
</svg>
