<svg xmlns="http://www.w3.org/2000/svg" width="20.125" height="23" viewBox="0 0 20.125 23">
  <defs>
    <style>
      .cls-1 {
        fill: #505050;
      }
    </style>
  </defs>
  <path id="Icon_awesome-trash" data-name="Icon awesome-trash" class="cls-1" d="M19.406,1.437H14.016L13.593.6a1.078,1.078,0,0,0-.966-.6H7.493a1.066,1.066,0,0,0-.961.6l-.422.84H.719A.719.719,0,0,0,0,2.156V3.594a.719.719,0,0,0,.719.719H19.406a.719.719,0,0,0,.719-.719V2.156A.719.719,0,0,0,19.406,1.437ZM2.39,20.978A2.156,2.156,0,0,0,4.542,23H15.583a2.156,2.156,0,0,0,2.152-2.021L18.687,5.75H1.437Z" transform="translate(0 0)"/>
</svg>
