<svg xmlns="http://www.w3.org/2000/svg" width="32.01" height="32" viewBox="0 0 32.01 32">
  <defs>
    
  </defs>
  <g id="Icon_ionic-ios-home" data-name="Icon ionic-ios-home" transform="translate(-3.374 -3.375)">
    <path id="Path_41" data-name="Path 41" class="cls-1" d="M19.25,7.325a.3.3,0,0,0-.385,0l-12,9.6a.323.323,0,0,0-.115.238V34.856a.154.154,0,0,0,.154.154h8.308a.154.154,0,0,0,.154-.154V24.087a.154.154,0,0,1,.154-.154H22.6a.154.154,0,0,1,.154.154V34.856a.154.154,0,0,0,.154.154h8.308a.154.154,0,0,0,.154-.154V17.164a.311.311,0,0,0-.115-.238Z" transform="translate(0.317 0.365)"/>
    <path id="Path_42" data-name="Path 42" class="cls-1" d="M34.967,15.39,20.429,3.744a1.689,1.689,0,0,0-2.108,0L11.991,8.89V5.644a.154.154,0,0,0-.154-.154H7.221a.154.154,0,0,0-.154.154v7.092l-3.285,2.7a1.076,1.076,0,0,0-.092,1.608,1.07,1.07,0,0,0,.762.315,1.084,1.084,0,0,0,.677-.238L19.275,5.737a.138.138,0,0,1,.1-.031.186.186,0,0,1,.1.031L33.621,17.075a1.084,1.084,0,0,0,.677.238,1.092,1.092,0,0,0,1.085-1.138A1.093,1.093,0,0,0,34.967,15.39Z" transform="translate(0 0)"/>
  </g>
</svg>
