<svg xmlns="http://www.w3.org/2000/svg" width="21.3" height="21.299" viewBox="0 0 21.3 21.299">
  <defs>
    
  </defs>
  <path id="Icon_ionic-ios-key" data-name="Icon ionic-ios-key" class="cls-1" d="M18.57,12.084a5.782,5.782,0,0,0-1.915.21C14.065,10.087,7.219,4.261,6.7,3.718a1.033,1.033,0,0,0-.768-.343,1.708,1.708,0,0,0-1.091.492c-.353.338-1.69,1.782-1.434,2.048.768.788.973.947,1.29,1.27.476.486,1.449-.051,1.843.118a.755.755,0,0,1,.532.64,9.568,9.568,0,0,1-.154,1.213,1.281,1.281,0,0,0,.471.973,1.077,1.077,0,0,0,.8.445c.461.01,1.07-.655,1.556-.159s-.317,1.213-.256,1.741a1.933,1.933,0,0,0,1.106,1.234c.312.067,1.116-.6,1.572-.5a1.068,1.068,0,0,1,.563.584c.051.236-.353,1.28-.3,1.515a3.6,3.6,0,0,0,.532.891,5.766,5.766,0,0,0-.481,2.442,6.23,6.23,0,0,0,6.1,6.349,6.222,6.222,0,0,0,6.093-6.349A6.136,6.136,0,0,0,18.57,12.084ZM19.758,21.4A1.638,1.638,0,1,1,21.4,19.759,1.637,1.637,0,0,1,19.758,21.4Z" transform="translate(-3.373 -3.375)"/>
</svg>
