<svg xmlns="http://www.w3.org/2000/svg" width="14.868" height="14.868" viewBox="0 0 14.868 14.868">
  <defs>
    <style>
      .cls-1 {
        fill: rgba(0,0,0,0.5);
      }
    </style>
  </defs>
  <path id="Icon_ionic-ios-arrow-round-up" data-name="Icon ionic-ios-arrow-round-up" class="cls-1" d="M19.5,12.452a.573.573,0,0,1-.806,0L16.025,9.8V19.931a.57.57,0,0,1-1.139,0V9.8l-2.668,2.664a.577.577,0,0,1-.806,0,.567.567,0,0,1,0-.8l3.637-3.61h0a.64.64,0,0,1,.18-.118.544.544,0,0,1,.219-.044.571.571,0,0,1,.4.162l3.637,3.61A.558.558,0,0,1,19.5,12.452Z" transform="translate(8.329 28.395) rotate(-135)"/>
</svg>
