<svg xmlns="http://www.w3.org/2000/svg" width="16.747" height="13.399" viewBox="0 0 16.747 13.399">
  <defs>
    
  </defs>
  <path id="Icon_awesome-user-edit" data-name="Icon awesome-user-edit" class="cls-1" d="M5.862,6.7a3.35,3.35,0,1,0-3.35-3.35A3.349,3.349,0,0,0,5.862,6.7Zm2.345.837H7.769a4.555,4.555,0,0,1-3.815,0H3.517A3.518,3.518,0,0,0,0,11.054v1.089A1.256,1.256,0,0,0,1.256,13.4H8.45a1.257,1.257,0,0,1-.068-.557l.178-1.594.031-.29L8.8,10.75l2.023-2.023A3.481,3.481,0,0,0,8.206,7.537Zm1.185,3.8-.178,1.6a.417.417,0,0,0,.461.461l1.594-.178,3.609-3.609L13,7.733,9.392,11.339Zm7.173-4.3-.992-.992a.627.627,0,0,0-.884,0l-.989.989-.107.107,1.879,1.876,1.094-1.094a.63.63,0,0,0,0-.887Z"/>
</svg>
