<svg xmlns="http://www.w3.org/2000/svg" width="34.875" height="34.875" viewBox="0 0 34.875 34.875">
  <defs>
    <style>
      .cls-1 {
        fill: #707070;
      }
    </style>
  </defs>
  <path id="Icon_awesome-redo-alt" data-name="Icon awesome-redo-alt" class="cls-1" d="M18.032.563A17.378,17.378,0,0,1,30.046,5.392l2.511-2.511a1.688,1.688,0,0,1,2.881,1.193V13.5a1.687,1.687,0,0,1-1.687,1.688H24.324a1.688,1.688,0,0,1-1.193-2.881l2.936-2.936a11.812,11.812,0,1,0-.288,17.519.842.842,0,0,1,1.151.039l2.789,2.789a.845.845,0,0,1-.034,1.226A17.438,17.438,0,1,1,18.032.563Z" transform="translate(-0.563 -0.562)"/>
</svg>
