<svg xmlns="http://www.w3.org/2000/svg" width="40.736" height="40.731" viewBox="0 0 40.736 40.731">
  <defs>
    <style>
      .cls-1 {
        fill: rgba(47,122,247,0.8);
      }
    </style>
  </defs>
  <path id="Icon_ionic-ios-send" data-name="Icon ionic-ios-send" class="cls-1" d="M51.959,12.6,13.012,29.574a.893.893,0,0,0,.032,1.623l10.535,5.952a1.7,1.7,0,0,0,1.941-.191L46.294,19.049c.138-.117.467-.339.594-.212s-.074.456-.191.594L28.725,39.674a1.693,1.693,0,0,0-.17,2.026L35.44,52.744a.9.9,0,0,0,1.613-.021l16.1-38.946A.893.893,0,0,0,51.959,12.6Z" transform="translate(-12.507 -12.508)"/>
</svg>
