<svg xmlns="http://www.w3.org/2000/svg" width="16.545" height="13" viewBox="0 0 16.545 13">
  <defs>
    <style>
      .cls-1 {
        fill: #4b4b4b;
      }
    </style>
  </defs>
  <g id="ios-settings-strong" transform="translate(-2.25 -5.625)">
    <path id="Path_21" data-name="Path 21" class="cls-1" d="M2.25,25.637H12.714a1.476,1.476,0,0,1,2.707,0h3.374v1.182H15.421a1.476,1.476,0,0,1-2.707,0H2.25" transform="translate(0 -9.08)"/>
    <path id="Path_22" data-name="Path 22" class="cls-1" d="M2.25,16.074H5.624a1.476,1.476,0,0,1,2.707,0H18.795v1.182H8.331a1.476,1.476,0,0,1-2.707,0H2.25" transform="translate(0 -4.54)"/>
    <path id="Path_23" data-name="Path 23" class="cls-1" d="M2.25,6.512H12.714a1.476,1.476,0,0,1,2.707,0h3.374V7.693H15.421a1.476,1.476,0,0,1-2.707,0H2.25"/>
  </g>
</svg>
