<svg xmlns="http://www.w3.org/2000/svg" width="15.559" height="13.83" viewBox="0 0 15.559 13.83">
  <defs>
    
  </defs>
  <path id="Icon_awesome-file-signature" data-name="Icon awesome-file-signature" class="cls-1" d="M5.893,11.457a.3.3,0,0,0-.275-.176.3.3,0,0,0-.271.167l-.207.414a.432.432,0,0,1-.8-.056L3.89,10.443,3.6,11.3a1.166,1.166,0,0,1-1.108.8H2.161a.432.432,0,1,1,0-.864H2.5a.3.3,0,0,0,.287-.207l.491-1.476a.649.649,0,0,1,1.23,0l.375,1.125a1.212,1.212,0,0,1,1.783.382.307.307,0,0,0,.253.169V9.012l3.458-3.433V4.322H6.7a.65.65,0,0,1-.648-.648V0H.648A.647.647,0,0,0,0,.648V13.182a.647.647,0,0,0,.648.648H9.725a.647.647,0,0,0,.648-.648V12.1l-3.458,0A1.16,1.16,0,0,1,5.893,11.457Zm4.479-8.164a.646.646,0,0,0-.189-.457L7.539.189A.648.648,0,0,0,7.08,0H6.915V3.458h3.458ZM7.78,9.372v1.865H9.643l4.367-4.4L12.177,5.007,7.78,9.372ZM15.358,4.52,14.5,3.659a.688.688,0,0,0-.973,0l-.736.736,1.834,1.834.736-.736A.688.688,0,0,0,15.358,4.52Z"/>
</svg>
