<svg xmlns="http://www.w3.org/2000/svg" width="23.78" height="16.646" viewBox="0 0 23.78 16.646">
  <defs>
    <style>
      .cls-1 {
        fill: #4b4b4b;
      }
    </style>
  </defs>
  <path id="Icon_awesome-cloud-upload-alt" data-name="Icon awesome-cloud-upload-alt" class="cls-1" d="M19.975,9.481a3.571,3.571,0,0,0-3.329-4.853,3.549,3.549,0,0,0-1.98.6,5.945,5.945,0,0,0-11.1,2.965c0,.1,0,.2.007.3A5.352,5.352,0,0,0,5.35,18.9H19.024a4.756,4.756,0,0,0,.951-9.415Zm-5.358,2.281h-2.43v4.161a.6.6,0,0,1-.594.594H9.809a.6.6,0,0,1-.594-.594V11.762H6.785a.593.593,0,0,1-.42-1.014l3.916-3.916a.6.6,0,0,1,.84,0l3.916,3.916a.594.594,0,0,1-.42,1.014Z" transform="translate(0 -2.25)"/>
</svg>
