<svg xmlns="http://www.w3.org/2000/svg" width="20.103" height="15.077" viewBox="0 0 20.103 15.077">
  <defs>
    
  </defs>
  <g id="bx-user-plus" transform="translate(-3 -6)">
    <path id="Path_19" data-name="Path 19" class="cls-1" d="M9,11.01a1.923,1.923,0,0,0,2.01,2.01,1.923,1.923,0,0,0,2.01-2.01A1.923,1.923,0,0,0,11.01,9,1.923,1.923,0,0,0,9,11.01Z" transform="translate(-1.979 -0.99)"/>
    <path id="Path_20" data-name="Path 20" class="cls-2" d="M20.088,10.021h-2.01v3.015H15.062v2.01h3.015v3.015h2.01V15.046H23.1v-2.01H20.088Zm-15.077,0a3.933,3.933,0,0,0,4.021,4.021,3.933,3.933,0,0,0,4.021-4.021A3.933,3.933,0,0,0,9.031,6,3.933,3.933,0,0,0,5.01,10.021Zm6.031,0a1.923,1.923,0,0,1-2.01,2.01,1.923,1.923,0,0,1-2.01-2.01,1.923,1.923,0,0,1,2.01-2.01A1.923,1.923,0,0,1,11.041,10.021ZM5.01,20.072a3.019,3.019,0,0,1,3.015-3.015h2.01a3.019,3.019,0,0,1,3.015,3.015v1.005h2.01V20.072a5.031,5.031,0,0,0-5.026-5.026H8.026A5.031,5.031,0,0,0,3,20.072v1.005H5.01Z"/>
  </g>
</svg>
