<svg xmlns="http://www.w3.org/2000/svg" width="48" height="48" viewBox="0 0 48 48">
  <path id="Icon_awesome-user-circle" data-name="Icon awesome-user-circle" d="M24,.563a24,24,0,1,0,24,24A24,24,0,0,0,24,.563Zm0,9.29a8.516,8.516,0,1,1-8.516,8.516A8.516,8.516,0,0,1,24,9.853Zm0,33.29a18.545,18.545,0,0,1-14.177-6.6,10.79,10.79,0,0,1,9.532-5.787,2.368,2.368,0,0,1,.687.106A12.813,12.813,0,0,0,24,31.53a12.764,12.764,0,0,0,3.958-.668,2.368,2.368,0,0,1,.687-.106,10.79,10.79,0,0,1,9.532,5.787A18.545,18.545,0,0,1,24,43.143Z" transform="translate(0 -0.563)"/>
</svg>
