<svg xmlns="http://www.w3.org/2000/svg" width="23.034" height="20.881" viewBox="0 0 23.034 20.881">
  <defs>
    <style>
      .cls-1 {
        fill: none;
        stroke: #000;
        stroke-linecap: round;
        stroke-linejoin: round;
        stroke-width: 1.5px;
      }
    </style>
  </defs>
  <g id="Icon_feather-briefcase" data-name="Icon feather-briefcase" transform="translate(-2.25 -3.75)">
    <path id="Path_56" data-name="Path 56" class="cls-1" d="M5.153,10.5H22.381a2.153,2.153,0,0,1,2.153,2.153V23.421a2.153,2.153,0,0,1-2.153,2.153H5.153A2.153,2.153,0,0,1,3,23.421V12.653A2.153,2.153,0,0,1,5.153,10.5Z" transform="translate(0 -1.693)"/>
    <path id="Path_57" data-name="Path 57" class="cls-1" d="M20.614,23.881V6.653A2.153,2.153,0,0,0,18.46,4.5H14.153A2.153,2.153,0,0,0,12,6.653V23.881" transform="translate(-2.54)"/>
  </g>
</svg>
