<svg xmlns="http://www.w3.org/2000/svg" width="34.987" height="21" viewBox="0 0 34.987 21">
  <path id="Icon_awesome-signature" data-name="Icon awesome-signature" d="M34.08,11.5c-2.833.191-6.874,2.991-8.919,3.91A11.319,11.319,0,0,1,21,16.744c-1.236,0-1.422-.886-1.165-2.838.06-.437.64-4.331-2.335-4.162-1.373.082-3.516,1.356-9.269,6.89L10.5,10.964A4.725,4.725,0,0,0,3.407,5.342l-3,2.018A.879.879,0,0,0,.137,8.568l.941,1.477a.87.87,0,0,0,1.209.268L5.458,8.186A1.221,1.221,0,0,1,7.246,9.668L1.876,23.1A1.747,1.747,0,0,0,3.5,25.5a1.73,1.73,0,0,0,1.236-.514c2.308-2.308,8.46-8.241,11.55-10.707-.12,1.559-.115,3.221,1.127,4.583a4.615,4.615,0,0,0,3.582,1.384A13.83,13.83,0,0,0,26.589,18.6c1.8-.809,5.414-3.423,7.568-3.6a.878.878,0,0,0,.831-.864V12.385a.868.868,0,0,0-.908-.886Z" transform="translate(-0.002 -4.499)"/>
</svg>
