<svg xmlns="http://www.w3.org/2000/svg" width="19.12" height="21.085" viewBox="0 0 19.12 21.085">
  <path id="Icon_simple-email" data-name="Icon simple-email" d="M20.776,9.731a10.874,10.874,0,0,1-.35,2.358,6.825,6.825,0,0,1-.917,2.071,4.839,4.839,0,0,1-1.555,1.472,4.388,4.388,0,0,1-2.27.56,3.291,3.291,0,0,1-1.642-.4,2.811,2.811,0,0,1-1.109-1.137,3.516,3.516,0,0,1-2.975,1.494,3.025,3.025,0,0,1-2.6-1.4,4.572,4.572,0,0,1-.646-1.618,6.978,6.978,0,0,1-.084-2.111,9.8,9.8,0,0,1,.643-2.585,7.026,7.026,0,0,1,1.188-1.98A5.027,5.027,0,0,1,10.1,5.2a4.559,4.559,0,0,1,1.987-.441,6.178,6.178,0,0,1,1.188.1,4.864,4.864,0,0,1,.922.277,4.987,4.987,0,0,1,.764.4c.233.15.468.306.7.464l-.577,6.64a2.207,2.207,0,0,0,.017.777,1.088,1.088,0,0,0,.237.48.854.854,0,0,0,.385.25,1.428,1.428,0,0,0,1.352-.266,2.881,2.881,0,0,0,.725-.922,5.94,5.94,0,0,0,.487-1.386A9.51,9.51,0,0,0,18.5,9.846a11.03,11.03,0,0,0-.271-3.225,6.411,6.411,0,0,0-1.194-2.5,5.543,5.543,0,0,0-2.14-1.607,7.766,7.766,0,0,0-3.117-.57,6.883,6.883,0,0,0-3.083.672A7.074,7.074,0,0,0,6.351,4.482a8.941,8.941,0,0,0-1.534,2.8,12.629,12.629,0,0,0-.646,3.491A11.61,11.61,0,0,0,4.5,14.339a6.434,6.434,0,0,0,1.3,2.553,5.432,5.432,0,0,0,2.206,1.534,8.46,8.46,0,0,0,3.044.509,10.424,10.424,0,0,0,2-.215c.329-.066.642-.145.939-.232a7.07,7.07,0,0,0,.809-.29l.418,1.879a4.636,4.636,0,0,1-.905.448,8.712,8.712,0,0,1-1.07.31,10.439,10.439,0,0,1-2.235.25,11.718,11.718,0,0,1-4.074-.656,7.5,7.5,0,0,1-2.97-1.953,8.2,8.2,0,0,1-1.783-3.224,13.752,13.752,0,0,1-.5-4.476,13.65,13.65,0,0,1,.856-4.3A10.63,10.63,0,0,1,4.6,3.069,9.4,9.4,0,0,1,7.749.817,9.855,9.855,0,0,1,11.825,0a10.288,10.288,0,0,1,3.95.708A7.683,7.683,0,0,1,18.626,2.7a8.165,8.165,0,0,1,1.692,3.074A11.753,11.753,0,0,1,20.776,9.731ZM9.462,11.022a4.482,4.482,0,0,0,.232,2.223A1.192,1.192,0,0,0,10.84,14a1.266,1.266,0,0,0,.393-.072,1.4,1.4,0,0,0,.452-.271,2.412,2.412,0,0,0,.459-.553,4.247,4.247,0,0,0,.422-.935L13.015,7a2.692,2.692,0,0,0-.7-.092,2.424,2.424,0,0,0-1.166.267,2.308,2.308,0,0,0-.826.785,4.611,4.611,0,0,0-.548,1.291,10.953,10.953,0,0,0-.311,1.765Z" transform="translate(-1.67)"/>
</svg>
