<svg xmlns="http://www.w3.org/2000/svg" width="62.252" height="48.418" viewBox="0 0 62.252 48.418">
  <path id="Icon_awesome-id-card" data-name="Icon awesome-id-card" d="M57.064,2.25H5.188A5.189,5.189,0,0,0,0,7.438V9.167H62.252V7.438A5.189,5.189,0,0,0,57.064,2.25ZM0,45.48a5.189,5.189,0,0,0,5.188,5.188H57.064a5.189,5.189,0,0,0,5.188-5.188V12.625H0ZM38.043,20.407a.867.867,0,0,1,.865-.865H54.47a.867.867,0,0,1,.865.865v1.729A.867.867,0,0,1,54.47,23H38.907a.867.867,0,0,1-.865-.865Zm0,6.917a.867.867,0,0,1,.865-.865H54.47a.867.867,0,0,1,.865.865v1.729a.867.867,0,0,1-.865.865H38.907a.867.867,0,0,1-.865-.865Zm0,6.917a.867.867,0,0,1,.865-.865H54.47a.867.867,0,0,1,.865.865V35.97a.867.867,0,0,1-.865.865H38.907a.867.867,0,0,1-.865-.865Zm-19.021-14.7A6.917,6.917,0,1,1,12.1,26.459,6.923,6.923,0,0,1,19.021,19.542ZM7.252,41.611a6.927,6.927,0,0,1,6.582-4.777h.886a11.132,11.132,0,0,0,8.6,0h.886a6.927,6.927,0,0,1,6.582,4.777,1.7,1.7,0,0,1-1.686,2.14H8.938A1.706,1.706,0,0,1,7.252,41.611Z" transform="translate(0 -2.25)"/>
</svg>
