<svg xmlns="http://www.w3.org/2000/svg" width="15.668" height="16" viewBox="0 0 15.668 16">
  <defs>
    
  </defs>
  <path id="settings-outline" class="cls-1" d="M10.634,8.045A2.168,2.168,0,1,0,12.579,9.99,2.168,2.168,0,0,0,10.634,8.045ZM15.855,10.2a5.229,5.229,0,0,1-.052.7l1.532,1.2a.366.366,0,0,1,.083.466l-1.449,2.507a.366.366,0,0,1-.445.156L14,14.625a.546.546,0,0,0-.514.059,5.572,5.572,0,0,1-.729.424.54.54,0,0,0-.3.411l-.228,1.622a.375.375,0,0,1-.362.311h-2.9a.376.376,0,0,1-.362-.3l-.227-1.62a.544.544,0,0,0-.3-.414,5.262,5.262,0,0,1-.727-.426.542.542,0,0,0-.512-.058l-1.521.612a.366.366,0,0,1-.445-.155L3.424,12.585a.366.366,0,0,1,.083-.466L4.8,11.1a.544.544,0,0,0,.2-.477c-.012-.141-.02-.282-.02-.424s.007-.28.02-.418A.542.542,0,0,0,4.8,9.312L3.506,8.3a.366.366,0,0,1-.081-.464L4.874,5.325a.366.366,0,0,1,.445-.156l1.521.612a.546.546,0,0,0,.514-.059A5.572,5.572,0,0,1,8.084,5.3a.54.54,0,0,0,.3-.411L8.61,3.264a.375.375,0,0,1,.362-.311h2.9a.376.376,0,0,1,.362.3l.227,1.62a.544.544,0,0,0,.3.414,5.262,5.262,0,0,1,.727.426A.542.542,0,0,0,14,5.771l1.521-.612a.366.366,0,0,1,.445.155l1.449,2.507a.366.366,0,0,1-.083.466L16.042,9.3a.544.544,0,0,0-.2.477c.011.14.019.281.019.423Z" transform="translate(-2.588 -2.203)"/>
</svg>
