<svg xmlns="http://www.w3.org/2000/svg" width="11.463" height="16.486" viewBox="0 0 11.463 16.486">
  <g id="lock-line" transform="translate(-7 -2.36)">
    <path id="Path_27" data-name="Path 27" d="M16.944,20.59a1.256,1.256,0,0,0-.568,2.371v1.49h1.042V23.008a1.256,1.256,0,0,0-.474-2.418Z" transform="translate(-4.166 -8.731)"/>
    <path id="Path_28" data-name="Path 28" d="M16.9,8.946V6.716A4.273,4.273,0,0,0,12.732,2.36,4.273,4.273,0,0,0,8.563,6.716v2.23H7V17.8a1.042,1.042,0,0,0,1.042,1.042h9.379A1.042,1.042,0,0,0,18.463,17.8V8.946ZM9.605,6.716A3.23,3.23,0,0,1,12.732,3.4a3.23,3.23,0,0,1,3.126,3.314v2.23H9.605ZM8.042,17.8V9.988h9.379V17.8Z"/>
  </g>
</svg>
