<svg xmlns="http://www.w3.org/2000/svg" width="32" height="32" viewBox="0 0 32 32">
  <defs>
    <style>
      .cls-1, .cls-3 {
        fill: none;
      }

      .cls-1 {
        stroke: #000;
      }

      .cls-2 {
        stroke: none;
      }
    </style>
  </defs>
  <g id="Group_173" data-name="Group 173" transform="translate(-929 -52)">
    <g id="Ellipse_6" data-name="Ellipse 6" class="cls-1" transform="translate(929 52)">
      <circle class="cls-2" cx="16" cy="16" r="16"/>
      <circle class="cls-3" cx="16" cy="16" r="15.5"/>
    </g>
    <path id="Icon_metro-insert-template" data-name="Icon metro-insert-template" d="M6.947,4.116H8.406v.729H6.947Zm2.188,0h1.459v.729H9.136Zm3.647,0V7.034H10.594V6.3h1.459V4.846h-.729V4.116ZM6.218,6.3H7.677v.729H6.218Zm2.188,0H9.865v.729H8.406ZM4.759,4.846V6.3h.729v.729H4.03V4.116H6.218v.729ZM6.947,8.493H8.406v.729H6.947Zm2.188,0h1.459v.729H9.136Zm3.647,0v2.918H10.594v-.729h1.459V9.222h-.729V8.493ZM6.218,10.681H7.677v.729H6.218Zm2.188,0H9.865v.729H8.406ZM4.759,9.222v1.459h.729v.729H4.03V8.493H6.218v.729Zm8.753-6.565H3.3V12.869H13.512V2.657Zm.729-.729V13.6H2.571V1.928H14.242Z" transform="translate(936.429 60.072)"/>
  </g>
</svg>
