<svg xmlns="http://www.w3.org/2000/svg" width="32" height="32" viewBox="0 0 32 32">
  <defs>
    <style>
      .cls-1 {
        fill: none;
      }

      .cls-2, .cls-3 {
        stroke: none;
      }

      .cls-3 {
        fill: #000;
      }
    </style>
  </defs>
  <g id="Group_172" data-name="Group 172" transform="translate(-1254 -381)">
    <g id="Path_43" data-name="Path 43" class="cls-1" transform="translate(1254 381)">
      <path class="cls-2" d="M16,0A16,16,0,1,1,0,16,16,16,0,0,1,16,0Z"/>
      <path class="cls-3" d="M 16 1 C 11.99334907531738 1 8.226520538330078 2.560270309448242 5.393400192260742 5.393400192260742 C 2.560270309448242 8.226520538330078 1 11.99334907531738 1 16 C 1 20.00664901733398 2.560270309448242 23.77347946166992 5.393400192260742 26.60659980773926 C 8.226520538330078 29.43972969055176 11.99334907531738 31 16 31 C 20.00664901733398 31 23.77347946166992 29.43972969055176 26.60659980773926 26.60659980773926 C 29.43972969055176 23.77347946166992 31 20.00664901733398 31 16 C 31 11.99334907531738 29.43972969055176 8.226520538330078 26.60659980773926 5.393400192260742 C 23.77347946166992 2.560270309448242 20.00664901733398 1 16 1 M 16 0 C 24.8365592956543 0 32 7.163440704345703 32 16 C 32 24.8365592956543 24.8365592956543 32 16 32 C 7.163440704345703 32 0 24.8365592956543 0 16 C 0 7.163440704345703 7.163440704345703 0 16 0 Z"/>
    </g>
    <path id="Icon_awesome-user-edit" data-name="Icon awesome-user-edit" d="M5.862,6.7a3.35,3.35,0,1,0-3.35-3.35A3.349,3.349,0,0,0,5.862,6.7Zm2.345.837H7.769a4.555,4.555,0,0,1-3.815,0H3.517A3.518,3.518,0,0,0,0,11.054v1.089A1.256,1.256,0,0,0,1.256,13.4H8.45a1.257,1.257,0,0,1-.068-.557l.178-1.594.031-.29L8.8,10.75l2.023-2.023A3.481,3.481,0,0,0,8.206,7.537Zm1.185,3.8-.178,1.6a.417.417,0,0,0,.461.461l1.594-.178,3.609-3.609L13,7.733,9.392,11.339Zm7.173-4.3-.992-.992a.627.627,0,0,0-.884,0l-.989.989-.107.107,1.879,1.876,1.094-1.094a.63.63,0,0,0,0-.887Z" transform="translate(1263.251 390.602)"/>
  </g>
</svg>
