<svg xmlns="http://www.w3.org/2000/svg" width="32" height="32" viewBox="0 0 32 32">
  <defs>
    
  </defs>
  <g id="Group_171" data-name="Group 171" transform="translate(-1206 -376)">
    <g id="Ellipse_6" data-name="Ellipse 6" class="cls-1" transform="translate(1206 376)">
      <circle class="cls-2" cx="16" cy="16" r="16"/>
      <circle class="cls-3" cx="16" cy="16" r="15.5"/>
    </g>
    <g id="document" transform="translate(1208.25 380.749)">
      <path id="Path_11" data-name="Path 11" d="M19.766,7.074,15.141,2.449a.6.6,0,0,0-.462-.2H8.071A1.325,1.325,0,0,0,6.75,3.572V19.43a1.325,1.325,0,0,0,1.321,1.321H18.643a1.325,1.325,0,0,0,1.321-1.321V7.536a.6.6,0,0,0-.2-.462ZM14.679,3.836l3.7,3.7h-3.7Zm3.964,15.593H8.071V3.572h5.286V7.536a1.325,1.325,0,0,0,1.321,1.321h3.964Z"/>
      <path id="Path_12" data-name="Path 12" d="M11.25,24.75h7.929v1.321H11.25Z" transform="translate(-1.857 -9.285)"/>
      <path id="Path_13" data-name="Path 13" d="M11.25,18h7.929v1.321H11.25Z" transform="translate(-1.857 -6.5)"/>
    </g>
  </g>
</svg>
