<svg xmlns="http://www.w3.org/2000/svg" width="34.875" height="34.875" viewBox="0 0 34.875 34.875">
  <path id="Icon_awesome-undo-alt" data-name="Icon awesome-undo-alt" d="M17.968.563A17.378,17.378,0,0,0,5.954,5.392L3.443,2.881A1.687,1.687,0,0,0,.563,4.074V13.5A1.687,1.687,0,0,0,2.25,15.188h9.426a1.688,1.688,0,0,0,1.193-2.881L9.934,9.371a11.812,11.812,0,1,1,.288,17.519.842.842,0,0,0-1.151.039L6.282,29.718a.845.845,0,0,0,.034,1.226A17.438,17.438,0,1,0,17.968.563Z" transform="translate(-0.563 -0.562)"/>
</svg>
