<svg xmlns="http://www.w3.org/2000/svg" width="22.892" height="16.646" viewBox="0 0 22.892 16.646">
  <path id="Icon_awesome-cloud-upload-alt" data-name="Icon awesome-cloud-upload-alt" d="M19.23,9.481a3.715,3.715,0,0,0,.229-1.286,3.5,3.5,0,0,0-3.434-3.567,3.327,3.327,0,0,0-1.907.6A5.685,5.685,0,0,0,9.157,2.25,5.836,5.836,0,0,0,3.434,8.195c0,.1,0,.2.007.3A5.344,5.344,0,0,0,0,13.545,5.255,5.255,0,0,0,5.151,18.9H18.314a4.669,4.669,0,0,0,4.578-4.756A4.715,4.715,0,0,0,19.23,9.481Zm-5.158,2.281H11.732v4.161a.585.585,0,0,1-.572.594H9.443a.585.585,0,0,1-.572-.594V11.762H6.532a.6.6,0,0,1-.4-1.014L9.9,6.831a.559.559,0,0,1,.808,0l3.77,3.916a.6.6,0,0,1-.4,1.014Z" transform="translate(0 -2.25)"/>
</svg>
